<svg xmlns="http://www.w3.org/2000/svg" width="980" height="560" viewBox="0 0 980 560">
  <rect width="980" height="560" fill="#f5f7fb"/>
  <rect width="980" height="72" fill="#3c235f"/>
  <text x="490" y="43" text-anchor="middle" font-family="Segoe UI, Arial" font-size="22" fill="#fff">Creamos conexiones que dejan huella</text>
  <rect x="0" y="72" width="980" height="44" fill="#2a1844"/>
  <text x="32" y="100" font-family="Segoe UI, Arial" font-size="14" fill="#fff">Requerimientos</text>
  <text x="168" y="100" font-family="Segoe UI, Arial" font-size="14" fill="#fff">Productos</text>
  <text x="288" y="100" font-family="Segoe UI, Arial" font-size="14" fill="#fff">Aprobaciones</text>
  <rect x="32" y="146" width="916" height="382" rx="8" fill="#fff" stroke="#d9deea"/>
  <text x="58" y="184" font-family="Segoe UI, Arial" font-size="24" font-weight="700" fill="#101b2d">Seguimiento de requerimientos</text>
  <rect x="748" y="156" width="42" height="42" rx="8" fill="#3c235f"/>
  <text x="764" y="184" font-family="Segoe UI, Arial" font-size="24" fill="#fff">+</text>
  <rect x="58" y="214" width="860" height="52" rx="8" fill="#f5f7fb" stroke="#d9deea"/>
  <text x="78" y="246" font-family="Segoe UI, Arial" font-size="15" fill="#697386">Buscar por codigo, actividad, solicitante, facultad, carrera...</text>
  <rect x="58" y="296" width="860" height="76" rx="8" fill="#fff" stroke="#d9deea"/>
  <text x="78" y="324" font-family="Segoe UI, Arial" font-size="18" font-weight="700" fill="#101b2d">REQ-2026062401 - Casa abierta Quito</text>
  <text x="78" y="350" font-family="Segoe UI, Arial" font-size="14" fill="#697386">Marketing | Ciencias Administrativas | Quito</text>
  <rect x="760" y="316" width="128" height="26" rx="13" fill="#eef4f7"/>
  <text x="824" y="334" text-anchor="middle" font-family="Segoe UI, Arial" font-size="13" fill="#001f49">En ejecucion</text>
  <rect x="58" y="392" width="860" height="76" rx="8" fill="#fff" stroke="#d9deea"/>
  <text x="78" y="420" font-family="Segoe UI, Arial" font-size="18" font-weight="700" fill="#101b2d">REQ-2026062402 - Feria de difusion</text>
  <text x="78" y="446" font-family="Segoe UI, Arial" font-size="14" fill="#697386">Admisiones | Ingenieria | Ambato</text>
  <rect x="724" y="412" width="164" height="26" rx="13" fill="#fff3cd"/>
  <text x="806" y="430" text-anchor="middle" font-family="Segoe UI, Arial" font-size="13" fill="#6f4e00">Finalizado rechazado</text>
</svg>
